<svg width="348" height="146" viewBox="0 0 348 146" fill="none" xmlns="http://www.w3.org/2000/svg">
<path d="M0.96875 25.2812C0.96875 21.8021 1.625 18.5625 2.9375 15.5625C4.25 12.5417 6.14583 9.92708 8.625 7.71875C11.125 5.48958 14.1667 3.73958 17.75 2.46875C21.3542 1.19792 25.4271 0.5625 29.9688 0.5625C33.9479 0.5625 37.5938 0.96875 40.9062 1.78125C44.2396 2.57292 47.3333 3.79167 50.1875 5.4375L45.625 12.9375C44.7708 12.375 43.7812 11.875 42.6562 11.4375C41.5521 11 40.3646 10.6354 39.0938 10.3438C37.8438 10.0312 36.5417 9.79167 35.1875 9.625C33.8542 9.45833 32.5312 9.375 31.2188 9.375C28.0521 9.375 25.2292 9.77083 22.75 10.5625C20.2708 11.3333 18.1771 12.4271 16.4688 13.8438C14.7812 15.2396 13.4896 16.9167 12.5938 18.875C11.7188 20.8125 11.2812 22.9479 11.2812 25.2812C11.2812 27.6979 11.7396 29.9167 12.6562 31.9375C13.5729 33.9583 14.8958 35.7083 16.625 37.1875C18.375 38.6458 20.5 39.7917 23 40.625C25.5208 41.4375 28.3646 41.8438 31.5312 41.8438C32.9688 41.8438 34.3958 41.7396 35.8125 41.5312C37.2292 41.3229 38.5938 41.0417 39.9062 40.6875C41.2396 40.3125 42.5208 39.875 43.75 39.375C44.9792 38.8542 46.125 38.2917 47.1875 37.6875L51.75 45.1875C49.0833 46.8958 46 48.2396 42.5 49.2188C39 50.1771 35.2812 50.6562 31.3438 50.6562C26.3229 50.6562 21.9167 50.0104 18.125 48.7188C14.3333 47.4062 11.1667 45.6146 8.625 43.3438C6.08333 41.0521 4.16667 38.3646 2.875 35.2812C1.60417 32.1771 0.96875 28.8438 0.96875 25.2812ZM59.3125 31.5625C59.3125 28.9167 59.8438 26.4375 60.9062 24.125C61.9896 21.8125 63.5208 19.7917 65.5 18.0625C67.5 16.3333 69.9062 14.9688 72.7188 13.9688C75.5521 12.9688 78.7292 12.4688 82.25 12.4688C85.7708 12.4688 88.9375 12.9688 91.75 13.9688C94.5833 14.9688 96.9896 16.3333 98.9688 18.0625C100.969 19.7917 102.5 21.8125 103.562 24.125C104.646 26.4375 105.188 28.9167 105.188 31.5625C105.188 34.2083 104.646 36.6875 103.562 39C102.5 41.3125 100.969 43.3333 98.9688 45.0625C96.9896 46.7917 94.5833 48.1562 91.75 49.1562C88.9375 50.1562 85.7708 50.6562 82.25 50.6562C78.7292 50.6562 75.5521 50.1562 72.7188 49.1562C69.9062 48.1562 67.5 46.7917 65.5 45.0625C63.5208 43.3333 61.9896 41.3125 60.9062 39C59.8438 36.6875 59.3125 34.2083 59.3125 31.5625ZM69.0312 31.5625C69.0312 33.0417 69.3229 34.4479 69.9062 35.7812C70.5104 37.0938 71.375 38.2604 72.5 39.2812C73.6458 40.2812 75.0312 41.0833 76.6562 41.6875C78.3021 42.2708 80.1667 42.5625 82.25 42.5625C84.3333 42.5625 86.1875 42.2708 87.8125 41.6875C89.4583 41.0833 90.8438 40.2812 91.9688 39.2812C93.1146 38.2604 93.9792 37.0938 94.5625 35.7812C95.1667 34.4479 95.4688 33.0417 95.4688 31.5625C95.4688 30.0833 95.1667 28.6771 94.5625 27.3438C93.9792 26.0104 93.1146 24.8438 91.9688 23.8438C90.8438 22.8229 89.4583 22.0208 87.8125 21.4375C86.1875 20.8333 84.3333 20.5312 82.25 20.5312C80.1667 20.5312 78.3021 20.8333 76.6562 21.4375C75.0312 22.0208 73.6458 22.8229 72.5 23.8438C71.375 24.8438 70.5104 26.0104 69.9062 27.3438C69.3229 28.6771 69.0312 30.0833 69.0312 31.5625ZM114.531 13.125H123.781V16.25C126.24 14.8542 128.583 13.875 130.812 13.3125C133.062 12.75 135.26 12.4688 137.406 12.4688C140.219 12.4688 142.823 12.8854 145.219 13.7188C147.615 14.5312 149.688 15.75 151.438 17.375C153.188 19 154.552 21.0312 155.531 23.4688C156.531 25.8854 157.031 28.6875 157.031 31.875V50H147.812V33.375C147.812 31.3542 147.521 29.5521 146.938 27.9688C146.375 26.3646 145.552 25.0208 144.469 23.9375C143.406 22.8333 142.104 22 140.562 21.4375C139.042 20.8542 137.333 20.5625 135.438 20.5625C134.438 20.5625 133.406 20.6667 132.344 20.875C131.302 21.0833 130.271 21.3854 129.25 21.7812C128.25 22.1562 127.281 22.6354 126.344 23.2188C125.406 23.7812 124.552 24.4271 123.781 25.1562V50H114.531V13.125ZM168.406 13.125H177.656V16.25C180.115 14.8542 182.458 13.875 184.688 13.3125C186.938 12.75 189.135 12.4688 191.281 12.4688C194.094 12.4688 196.698 12.8854 199.094 13.7188C201.49 14.5312 203.562 15.75 205.312 17.375C207.062 19 208.427 21.0312 209.406 23.4688C210.406 25.8854 210.906 28.6875 210.906 31.875V50H201.688V33.375C201.688 31.3542 201.396 29.5521 200.812 27.9688C200.25 26.3646 199.427 25.0208 198.344 23.9375C197.281 22.8333 195.979 22 194.438 21.4375C192.917 20.8542 191.208 20.5625 189.312 20.5625C188.312 20.5625 187.281 20.6667 186.219 20.875C185.177 21.0833 184.146 21.3854 183.125 21.7812C182.125 22.1562 181.156 22.6354 180.219 23.2188C179.281 23.7812 178.427 24.4271 177.656 25.1562V50H168.406V13.125ZM220.531 31.4375C220.531 28.9375 221.042 26.5521 222.062 24.2812C223.083 21.9896 224.552 19.9688 226.469 18.2188C228.385 16.4688 230.729 15.0729 233.5 14.0312C236.292 12.9896 239.458 12.4688 243 12.4688C246.521 12.4688 249.688 13 252.5 14.0625C255.333 15.1042 257.729 16.5417 259.688 18.375C261.667 20.2083 263.177 22.3646 264.219 24.8438C265.281 27.3229 265.812 29.9792 265.812 32.8125C265.812 33.1667 265.802 33.5521 265.781 33.9688C265.781 34.3646 265.76 34.7292 265.719 35.0625H230.844C231.24 36.1667 231.875 37.1771 232.75 38.0938C233.646 39.0104 234.76 39.8021 236.094 40.4688C237.427 41.1354 238.969 41.6562 240.719 42.0312C242.469 42.3854 244.406 42.5625 246.531 42.5625C248.656 42.5625 250.771 42.3438 252.875 41.9062C254.979 41.4479 256.99 40.875 258.906 40.1875L262.031 47.25C260.823 47.8125 259.594 48.3125 258.344 48.75C257.115 49.1667 255.823 49.5208 254.469 49.8125C253.135 50.0833 251.729 50.2917 250.25 50.4375C248.792 50.5833 247.25 50.6562 245.625 50.6562C241.479 50.6562 237.844 50.1562 234.719 49.1562C231.594 48.1562 228.979 46.7917 226.875 45.0625C224.771 43.3333 223.188 41.3021 222.125 38.9688C221.062 36.6354 220.531 34.125 220.531 31.4375ZM256 27.8438C255.667 26.8229 255.146 25.875 254.438 25C253.75 24.1042 252.885 23.3333 251.844 22.6875C250.802 22.0208 249.594 21.5 248.219 21.125C246.844 20.75 245.333 20.5625 243.688 20.5625C241.938 20.5625 240.344 20.7604 238.906 21.1562C237.469 21.5521 236.208 22.0833 235.125 22.75C234.042 23.4167 233.135 24.1875 232.406 25.0625C231.698 25.9375 231.177 26.8646 230.844 27.8438H256ZM273.562 31.6562C273.562 28.9479 274.052 26.4271 275.031 24.0938C276.031 21.7396 277.479 19.7083 279.375 18C281.292 16.2708 283.625 14.9167 286.375 13.9375C289.146 12.9583 292.302 12.4688 295.844 12.4688C297.385 12.4688 298.938 12.5625 300.5 12.75C302.062 12.9375 303.562 13.2083 305 13.5625C306.458 13.8958 307.823 14.3021 309.094 14.7812C310.365 15.2396 311.469 15.75 312.406 16.3125L308.125 23.2812C306.104 22.3438 304.188 21.6562 302.375 21.2188C300.583 20.7812 298.76 20.5625 296.906 20.5625C294.781 20.5625 292.875 20.8438 291.188 21.4062C289.5 21.9479 288.062 22.7188 286.875 23.7188C285.708 24.6979 284.812 25.8646 284.188 27.2188C283.583 28.5521 283.281 30.0104 283.281 31.5938C283.281 33.1771 283.604 34.6458 284.25 36C284.917 37.3333 285.844 38.4896 287.031 39.4688C288.24 40.4271 289.688 41.1875 291.375 41.75C293.083 42.2917 294.979 42.5625 297.062 42.5625C299.354 42.5625 301.51 42.2396 303.531 41.5938C305.573 40.9479 307.469 40.0833 309.219 39L313.5 45.9688C312.396 46.6354 311.198 47.2604 309.906 47.8438C308.615 48.4062 307.229 48.8958 305.75 49.3125C304.292 49.7292 302.75 50.0521 301.125 50.2812C299.521 50.5312 297.854 50.6562 296.125 50.6562C292.604 50.6562 289.448 50.1771 286.656 49.2188C283.865 48.2604 281.5 46.9375 279.562 45.25C277.625 43.5417 276.135 41.5312 275.094 39.2188C274.073 36.9062 273.562 34.3854 273.562 31.6562ZM329.031 20.0625H320.125V13.125H329.031V1.65625H338.281V13.125H347.188V20.0625H338.281V50H329.031V20.0625Z" fill="#42A2AA"/>
<path d="M3.96875 81.1562H13.875L31.625 98.9688L49.375 81.1562H59.2812V130H49.375V94.875L31.625 111.969L13.875 94.875V130H3.96875V81.1562ZM70.2812 118.375C70.2812 116.604 70.6667 114.99 71.4375 113.531C72.2083 112.073 73.3646 110.823 74.9062 109.781C76.4479 108.719 78.3646 107.906 80.6562 107.344C82.9688 106.76 85.6562 106.469 88.7188 106.469C90.9896 106.469 93.375 106.635 95.875 106.969C98.3958 107.302 100.99 107.812 103.656 108.5C103.552 107.333 103.198 106.26 102.594 105.281C101.99 104.281 101.146 103.427 100.062 102.719C99 101.99 97.7083 101.427 96.1875 101.031C94.6875 100.635 92.9792 100.438 91.0625 100.438C90.0208 100.438 88.875 100.5 87.625 100.625C86.375 100.75 85.0833 100.938 83.75 101.188C82.4167 101.438 81.0938 101.75 79.7812 102.125C78.4896 102.5 77.2812 102.948 76.1562 103.469L73.3438 95.875C74.7396 95.375 76.2292 94.9167 77.8125 94.5C79.4167 94.0833 81.0521 93.7292 82.7188 93.4375C84.3854 93.125 86.0521 92.8854 87.7188 92.7188C89.3854 92.5521 91 92.4688 92.5625 92.4688C99.4583 92.4688 104.583 94.2292 107.938 97.75C111.292 101.271 112.969 106.667 112.969 113.938V130H103.719V126.531C102.76 127.094 101.708 127.625 100.562 128.125C99.4375 128.625 98.2083 129.062 96.875 129.438C95.5417 129.812 94.1042 130.104 92.5625 130.312C91.0417 130.542 89.4271 130.656 87.7188 130.656C84.8438 130.656 82.3125 130.344 80.125 129.719C77.9583 129.094 76.1458 128.229 74.6875 127.125C73.2292 126.021 72.125 124.729 71.375 123.25C70.6458 121.75 70.2812 120.125 70.2812 118.375ZM80.0312 118.062C80.0312 118.667 80.1875 119.25 80.5 119.812C80.8125 120.354 81.3125 120.844 82 121.281C82.6875 121.698 83.5625 122.042 84.625 122.312C85.7083 122.562 87.0104 122.688 88.5312 122.688C90.1562 122.688 91.7292 122.542 93.25 122.25C94.7708 121.958 96.1875 121.573 97.5 121.094C98.8125 120.615 100 120.062 101.062 119.438C102.125 118.812 103.01 118.167 103.719 117.5V115.875C102.302 115.479 100.896 115.146 99.5 114.875C98.125 114.604 96.8021 114.396 95.5312 114.25C94.2812 114.083 93.0938 113.969 91.9688 113.906C90.8646 113.844 89.8958 113.812 89.0625 113.812C87.3333 113.812 85.8958 113.927 84.75 114.156C83.6042 114.385 82.6771 114.698 81.9688 115.094C81.2604 115.469 80.7604 115.917 80.4688 116.438C80.1771 116.958 80.0312 117.5 80.0312 118.062ZM134.219 145.062H124.969V93.125H134.219V96.5938C135.031 96.0312 135.99 95.5 137.094 95C138.198 94.5 139.385 94.0625 140.656 93.6875C141.927 93.3125 143.24 93.0208 144.594 92.8125C145.948 92.5833 147.302 92.4688 148.656 92.4688C151.781 92.4688 154.646 92.9271 157.25 93.8438C159.875 94.7604 162.125 96.0521 164 97.7188C165.875 99.3854 167.333 101.385 168.375 103.719C169.438 106.031 169.969 108.594 169.969 111.406C169.969 114.344 169.417 117 168.312 119.375C167.208 121.729 165.677 123.75 163.719 125.438C161.781 127.104 159.469 128.396 156.781 129.312C154.115 130.208 151.219 130.656 148.094 130.656C146.76 130.656 145.438 130.573 144.125 130.406C142.833 130.24 141.583 130.01 140.375 129.719C139.188 129.427 138.062 129.083 137 128.688C135.958 128.271 135.031 127.823 134.219 127.344V145.062ZM134.219 118.406C135.156 119.156 136.146 119.792 137.188 120.312C138.229 120.833 139.292 121.26 140.375 121.594C141.458 121.927 142.552 122.177 143.656 122.344C144.76 122.49 145.833 122.562 146.875 122.562C149 122.562 150.885 122.281 152.531 121.719C154.198 121.135 155.594 120.344 156.719 119.344C157.865 118.344 158.74 117.167 159.344 115.812C159.948 114.458 160.25 112.99 160.25 111.406C160.25 109.927 159.948 108.531 159.344 107.219C158.76 105.906 157.906 104.76 156.781 103.781C155.677 102.781 154.333 102 152.75 101.438C151.188 100.854 149.427 100.562 147.469 100.562C146.219 100.562 144.969 100.688 143.719 100.938C142.469 101.167 141.26 101.5 140.094 101.938C138.948 102.375 137.865 102.906 136.844 103.531C135.844 104.156 134.969 104.854 134.219 105.625V118.406Z" fill="#88EAF0"/>
</svg>
